name rise44.8762peak52.3436fall86.788.mot
datacolumns 19
datarows 32
range 2.86998800000000 2.92165000000000
endheader
time	ground_force1_vx	ground_force1_vy	ground_force1_vz	ground_force1_px	ground_force1_py	ground_force1_pz	ground_force2_vx	ground_force2_vy	ground_force2_vz	ground_force2_px	ground_force2_py	ground_force2_pz	ground_torque1_x	ground_torque1_y	ground_torque1_z	ground_torque2_x	ground_torque2_y	ground_torque2_z	
2.86998800000000	-26.26337000000000	787.36732199999994	56.74855500000000	0.10950300000000	0.00000000000000	0.09463400000000	-2.97564900000000	36.93091000000000	0.23382400000000	0.33039600000000	0.00000000000000	-0.08819300000000	0.00000000000000	19.40722600000000	0.00000000000000	0.00000000000000	-0.54184600000000	0.00000000000000	
2.87165700000000	-26.44794500000000	785.50459000000001	56.55527800000000	0.10891400000000	0.00000000000000	0.09450600000000	-3.36755500000000	42.69625200000000	0.23877300000000	0.33219500000000	0.00000000000000	-0.08872800000000	0.00000000000000	19.28573400000000	0.00000000000000	0.00000000000000	-0.62364600000000	0.00000000000000	
2.87331900000000	-26.64513300000000	783.53765399999997	56.34224800000000	0.10833200000000	0.00000000000000	0.09437500000000	-3.72439000000000	48.39024800000000	0.23255100000000	0.33394400000000	0.00000000000000	-0.08921400000000	0.00000000000000	19.16336700000000	0.00000000000000	0.00000000000000	-0.70306400000000	0.00000000000000	
2.87498900000000	-26.85517000000000	781.46539299999995	56.10904400000000	0.10775800000000	0.00000000000000	0.09424200000000	-4.03541800000000	53.93209400000000	0.21363600000000	0.33564400000000	0.00000000000000	-0.08965800000000	0.00000000000000	19.04022200000000	0.00000000000000	0.00000000000000	-0.77870100000000	0.00000000000000	
2.87665300000000	-27.07826400000000	779.28671899999995	55.85526700000000	0.10719200000000	0.00000000000000	0.09410700000000	-4.29217200000000	59.26614000000000	0.18082300000000	0.33729400000000	0.00000000000000	-0.09006400000000	0.00000000000000	18.91639000000000	0.00000000000000	0.00000000000000	-0.84955500000000	0.00000000000000	
2.87831900000000	-27.31458600000000	777.00057400000003	55.58054400000000	0.10663400000000	0.00000000000000	0.09396800000000	-4.48863200000000	64.36309300000001	0.13323200000000	0.33889300000000	0.00000000000000	-0.09043600000000	0.00000000000000	18.79195800000000	0.00000000000000	0.00000000000000	-0.91505100000000	0.00000000000000	
2.87998700000000	-27.56427500000000	774.60592699999995	55.28452800000000	0.10608300000000	0.00000000000000	0.09382800000000	-4.62117600000000	69.21884100000000	0.07029000000000	0.34044200000000	0.00000000000000	-0.09077800000000	0.00000000000000	18.66700600000000	0.00000000000000	0.00000000000000	-0.97502200000000	0.00000000000000	
2.88165200000000	-27.82743500000000	772.10177299999998	54.96690000000000	0.10553900000000	0.00000000000000	0.09368400000000	-4.68836800000000	73.85140500000000	-0.00831300000000	0.34193900000000	0.00000000000000	-0.09109400000000	0.00000000000000	18.54161100000000	0.00000000000000	0.00000000000000	-1.02966800000000	0.00000000000000	
2.88332100000000	-28.10413100000000	769.48713299999997	54.62737000000000	0.10500200000000	0.00000000000000	0.09353700000000	-4.69060400000000	78.29658100000000	-0.10267100000000	0.34338400000000	0.00000000000000	-0.09138600000000	0.00000000000000	18.41584200000000	0.00000000000000	0.00000000000000	-1.07949200000000	0.00000000000000	
2.88499200000000	-28.39439200000000	766.76104399999997	54.26568000000000	0.10447300000000	0.00000000000000	0.09338800000000	-4.62969700000000	82.60286900000000	-0.21272400000000	0.34477500000000	0.00000000000000	-0.09165700000000	0.00000000000000	18.28976400000000	0.00000000000000	0.00000000000000	-1.12522000000000	0.00000000000000	
2.88665500000000	-28.69820400000000	763.92256299999997	53.88160300000000	0.10394900000000	0.00000000000000	0.09323600000000	-4.50842000000000	86.82622700000000	-0.33831600000000	0.34611300000000	0.00000000000000	-0.09190800000000	0.00000000000000	18.16343400000000	0.00000000000000	0.00000000000000	-1.16771900000000	0.00000000000000	
2.88832200000000	-29.01551300000000	760.97076400000003	53.47494700000000	0.10343200000000	0.00000000000000	0.09308100000000	-4.33007300000000	91.02510800000000	-0.47925000000000	0.34739500000000	0.00000000000000	-0.09214300000000	0.00000000000000	18.03690400000000	0.00000000000000	0.00000000000000	-1.20792100000000	0.00000000000000	
2.88998500000000	-29.34622000000000	757.90473199999997	53.04555600000000	0.10292100000000	0.00000000000000	0.09292300000000	-4.09808800000000	95.25612800000000	-0.63533000000000	0.34862300000000	0.00000000000000	-0.09236200000000	0.00000000000000	17.91022100000000	0.00000000000000	0.00000000000000	-1.24675400000000	0.00000000000000	
2.89165600000000	-29.69018300000000	754.72356200000002	52.59331100000000	0.10241500000000	0.00000000000000	0.09276200000000	-3.81571500000000	99.57059300000000	-0.80640300000000	0.34979500000000	0.00000000000000	-0.09256800000000	0.00000000000000	17.78342400000000	0.00000000000000	0.00000000000000	-1.28508200000000	0.00000000000000	
2.89331900000000	-30.04721200000000	751.42635900000005	52.11813200000000	0.10191300000000	0.00000000000000	0.09259800000000	-3.48577100000000	104.01200600000000	-0.99237300000000	0.35091000000000	0.00000000000000	-0.09276100000000	0.00000000000000	17.65654700000000	0.00000000000000	0.00000000000000	-1.32366800000000	0.00000000000000	
2.89498600000000	-30.41706800000000	748.01222900000005	51.61997800000000	0.10141600000000	0.00000000000000	0.09243100000000	-3.11049700000000	108.61456699999999	-1.19322200000000	0.35196800000000	0.00000000000000	-0.09294300000000	0.00000000000000	17.52961700000000	0.00000000000000	0.00000000000000	-1.36314400000000	0.00000000000000	
2.89665400000000	-30.79946400000000	744.48028399999998	51.09885100000000	0.10092300000000	0.00000000000000	0.09226200000000	-2.69147700000000	113.40260900000000	-1.40900800000000	0.35296900000000	0.00000000000000	-0.09311600000000	0.00000000000000	17.40265600000000	0.00000000000000	0.00000000000000	-1.40400200000000	0.00000000000000	
2.89831900000000	-31.19406200000000	740.82963500000005	50.55479300000000	0.10043300000000	0.00000000000000	0.09208900000000	-2.22964600000000	118.39082399999999	-1.63985500000000	0.35391200000000	0.00000000000000	-0.09327900000000	0.00000000000000	17.27567900000000	0.00000000000000	0.00000000000000	-1.44659300000000	0.00000000000000	
2.89998600000000	-31.60046900000000	737.05939200000000	49.98789300000000	0.09994600000000	0.00000000000000	0.09191400000000	-1.72534300000000	123.58514400000000	-1.88594500000000	0.35479800000000	0.00000000000000	-0.09343500000000	0.00000000000000	17.14869600000000	0.00000000000000	0.00000000000000	-1.49113800000000	0.00000000000000	
2.90165700000000	-32.01824000000000	733.16865800000005	49.39828400000000	0.09946000000000	0.00000000000000	0.09173600000000	-1.17842400000000	128.98406600000001	-2.14749500000000	0.35562700000000	0.00000000000000	-0.09358300000000	0.00000000000000	17.02171000000000	0.00000000000000	0.00000000000000	-1.53774700000000	0.00000000000000	
2.90332100000000	-32.44687500000000	729.15653499999996	48.78614500000000	0.09897600000000	0.00000000000000	0.09155500000000	-0.58838300000000	134.58024700000001	-2.42473800000000	0.35639900000000	0.00000000000000	-0.09372400000000	0.00000000000000	16.89472100000000	0.00000000000000	0.00000000000000	-1.58643900000000	0.00000000000000	
2.90498400000000	-32.88581600000000	725.02211599999998	48.15170000000000	0.09849200000000	0.00000000000000	0.09137200000000	0.04549400000000	140.36220800000001	-2.71790100000000	0.35711300000000	0.00000000000000	-0.09386000000000	0.00000000000000	16.76772000000000	0.00000000000000	0.00000000000000	-1.63717300000000	0.00000000000000	
2.90665800000000	-33.33444900000000	720.76448500000004	47.49522500000000	0.09800900000000	0.00000000000000	0.09118500000000	0.72399000000000	146.31598700000001	-3.02718800000000	0.35777100000000	0.00000000000000	-0.09399000000000	0.00000000000000	16.64069500000000	0.00000000000000	0.00000000000000	-1.68986300000000	0.00000000000000	
2.90832400000000	-33.79210100000000	716.38272099999995	46.81704100000000	0.09752500000000	0.00000000000000	0.09099700000000	1.44782000000000	152.42663099999999	-3.35275700000000	0.35837300000000	0.00000000000000	-0.09411500000000	0.00000000000000	16.51362800000000	0.00000000000000	0.00000000000000	-1.74440900000000	0.00000000000000	
2.90998600000000	-34.25804100000000	711.87589600000001	46.11752000000000	0.09704000000000	0.00000000000000	0.09080500000000	2.21752100000000	158.67945800000001	-3.69471100000000	0.35892000000000	0.00000000000000	-0.09423500000000	0.00000000000000	16.38649900000000	0.00000000000000	0.00000000000000	-1.80071300000000	0.00000000000000	
2.91165400000000	-34.73147900000000	707.24307599999997	45.39708200000000	0.09655300000000	0.00000000000000	0.09061100000000	3.03335900000000	165.06102300000001	-4.05308500000000	0.35941200000000	0.00000000000000	-0.09435100000000	0.00000000000000	16.25927800000000	0.00000000000000	0.00000000000000	-1.85869100000000	0.00000000000000	
2.91331700000000	-35.21156700000000	702.48332500000004	44.65619800000000	0.09606400000000	0.00000000000000	0.09041500000000	3.89526700000000	171.55978999999999	-4.42784000000000	0.35985000000000	0.00000000000000	-0.09446400000000	0.00000000000000	16.13193500000000	0.00000000000000	0.00000000000000	-1.91828600000000	0.00000000000000	
2.91498900000000	-35.69739600000000	697.59570900000006	43.89538600000000	0.09557200000000	0.00000000000000	0.09021700000000	4.80280700000000	178.16650400000000	-4.81885700000000	0.36023600000000	0.00000000000000	-0.09457300000000	0.00000000000000	16.00443400000000	0.00000000000000	0.00000000000000	-1.97947700000000	0.00000000000000	
2.91665700000000	-36.18800200000000	692.57929700000000	43.11521700000000	0.09507700000000	0.00000000000000	0.09001600000000	5.75515400000000	184.87430800000001	-5.22594400000000	0.36057000000000	0.00000000000000	-0.09467800000000	0.00000000000000	15.87673500000000	0.00000000000000	0.00000000000000	-2.04227400000000	0.00000000000000	
2.91832000000000	-36.68236200000000	687.43317400000001	42.31630800000000	0.09457700000000	0.00000000000000	0.08981400000000	6.75110900000000	191.67863199999999	-5.64883100000000	0.36085400000000	0.00000000000000	-0.09478000000000	0.00000000000000	15.74879400000000	0.00000000000000	0.00000000000000	-2.10672200000000	0.00000000000000	
2.91998500000000	-37.17939800000000	682.15643899999998	41.49932600000000	0.09407400000000	0.00000000000000	0.08960900000000	7.78911800000000	198.57692399999999	-6.08718100000000	0.36108800000000	0.00000000000000	-0.09488000000000	0.00000000000000	15.62056300000000	0.00000000000000	0.00000000000000	-2.17289900000000	0.00000000000000	
2.92165000000000	-37.67797700000000	676.74822099999994	40.66498400000000	0.09356500000000	0.00000000000000	0.08940300000000	8.86731200000000	205.56826000000001	-6.54059500000000	0.36127500000000	0.00000000000000	-0.09497600000000	0.00000000000000	15.49199100000000	0.00000000000000	0.00000000000000	-2.24090300000000	0.00000000000000	
